<svg xmlns="http://www.w3.org/2000/svg" viewBox="0 0 500 500" width="100%" height="100%">
  <defs>
    <linearGradient id="bg1" x1="0%" y1="0%" x2="100%" y2="100%">
      <stop offset="0%" stop-color="#fff0f5"/>
      <stop offset="100%" stop-color="#ffd1dc"/>
    </linearGradient>
    <linearGradient id="pinkGrad" x1="0%" y1="0%" x2="100%" y2="100%">
      <stop offset="0%" stop-color="#ff758c"/>
      <stop offset="100%" stop-color="#ff7eb3"/>
    </linearGradient>
  </defs>
  <rect width="500" height="500" fill="url(#bg1)"/>
  <circle cx="250" cy="220" r="120" fill="#ffffff" stroke="#f43f5e" stroke-width="6"/>
  <!-- Volleyball seams -->
  <path d="M 250,100 C 250,180 180,220 130,220" fill="none" stroke="#fda4af" stroke-width="5"/>
  <path d="M 250,340 C 250,260 320,220 370,220" fill="none" stroke="#fda4af" stroke-width="5"/>
  <path d="M 170,135 C 230,170 230,270 170,305" fill="none" stroke="#fda4af" stroke-width="5"/>
  <path d="M 330,135 C 270,170 270,270 330,305" fill="none" stroke="#fda4af" stroke-width="5"/>
  <!-- Sparkles -->
  <polygon points="120,110 126,126 142,132 126,138 120,154 114,138 98,132 114,126" fill="#f43f5e"/>
  <polygon points="380,100 384,112 396,116 384,120 380,132 376,120 364,116 376,112" fill="#f43f5e"/>
  <text x="250" y="390" font-family="-apple-system, sans-serif" font-weight="900" font-size="28" fill="#e11d48" text-anchor="middle">VOLLEYBALL ACE 🏐</text>
  <text x="250" y="425" font-family="-apple-system, sans-serif" font-weight="600" font-size="16" fill="#7c6270" text-anchor="middle">Replace with assets/photos/photo1.jpg</text>
</svg>
